HIERARCHY
ROOT root
{
	OFFSET 0.000000 0.000000 0.000000
	CHANNELS 6 Xposition Yposition Zposition Zrotation Yrotation Xrotation
	JOINT lhip
	{
		OFFSET 0.058581 -0.082280 -0.017664
		CHANNELS 3 Zrotation Yrotation Xrotation
		JOINT lknee
		{
			OFFSET 0.043451 -0.386469 0.008037
			CHANNELS 3 Zrotation Yrotation Xrotation
			JOINT lankle
			{
				OFFSET -0.014790 -0.426874 -0.037428
				CHANNELS 3 Zrotation Yrotation Xrotation
				JOINT ltoe
				{
					OFFSET 0.041054 -0.060286 0.122042
					CHANNELS 3 Zrotation Yrotation Xrotation
					End Site
					{
						OFFSET 0.000000 0.000000 0.000000
					}
				}
			}
		}
	}
	JOINT rhip
	{
		OFFSET -0.060310 -0.090513 -0.013543
		CHANNELS 3 Zrotation Yrotation Xrotation
		JOINT rknee
		{
			OFFSET -0.043257 -0.383688 -0.004843
			CHANNELS 3 Zrotation Yrotation Xrotation
			JOINT rankle
			{
				OFFSET 0.019056 -0.420046 -0.034562
				CHANNELS 3 Zrotation Yrotation Xrotation
				JOINT rtoe
				{
					OFFSET -0.034840 -0.062106 0.130323
					CHANNELS 3 Zrotation Yrotation Xrotation
					End Site
					{
						OFFSET 0.000000 0.000000 0.000000
					}
				}
			}
		}
	}
	JOINT lowerback
	{
		OFFSET 0.004439 0.124404 -0.038385
		CHANNELS 3 Zrotation Yrotation Xrotation
		JOINT upperback
		{
			OFFSET 0.004488 0.137956 0.026820
			CHANNELS 3 Zrotation Yrotation Xrotation
			JOINT chest
			{
				OFFSET -0.002265 0.056032 0.002855
				CHANNELS 3 Zrotation Yrotation Xrotation
				JOINT lowerneck
				{
					OFFSET -0.013390 0.211636 -0.033468
					CHANNELS 3 Zrotation Yrotation Xrotation
					JOINT upperneck
					{
						OFFSET 0.010113 0.088937 0.050410
						CHANNELS 3 Zrotation Yrotation Xrotation
						End Site
						{
							OFFSET 0.000000 0.000000 0.000000
						}
					}
				}
				JOINT lclavicle
				{
					OFFSET 0.071702 0.114000 -0.018898
					CHANNELS 3 Zrotation Yrotation Xrotation
					JOINT lshoulder
					{
						OFFSET 0.122921 0.045205 -0.019046
						CHANNELS 3 Zrotation Yrotation Xrotation
						JOINT lelbow
						{
							OFFSET 0.255332 -0.015649 -0.022946
							CHANNELS 3 Zrotation Yrotation Xrotation
							JOINT lwrist
							{
								OFFSET 0.265709 0.012698 -0.007375
								CHANNELS 3 Zrotation Yrotation Xrotation
								End Site
								{
									OFFSET 0.000000 0.000000 0.000000
								}
							}
						}
					}
				}
				JOINT rclavicle
				{
					OFFSET -0.082954 0.112472 -0.023707
					CHANNELS 3 Zrotation Yrotation Xrotation
					JOINT rshoulder
					{
						OFFSET -0.113228 0.046853 -0.008472
						CHANNELS 3 Zrotation Yrotation Xrotation
						JOINT relbow
						{
							OFFSET -0.260127 -0.014369 -0.031269
							CHANNELS 3 Zrotation Yrotation Xrotation
							JOINT rwrist
							{
								OFFSET -0.269108 0.006794 -0.006027
								CHANNELS 3 Zrotation Yrotation Xrotation
								End Site
								{
									OFFSET 0.000000 0.000000 0.000000
								}
							}
						}
					}
				}
			}
		}
	}
}
MOTION
Frames: 8
Frame Time: 0.033333
1.696984 0.768293 0.744784 -88.492492 -0.320452 112.478884 12.539879 -8.776739 -63.816339 -10.607254 10.749672 84.656917 5.599667 15.667676 -47.584924 0.000000 -0.000000 0.000000 -7.636382 8.149279 -63.798888 0.409151 -9.880530 86.245780 5.645514 -16.689874 -47.551092 0.000000 -0.000000 0.000000 -2.987430 0.561944 34.655374 3.006183 0.094805 -9.647803 0.679088 -2.074168 3.915206 0.606171 3.348207 -24.213154 3.023366 -4.040695 -11.664868 -28.609630 -2.263685 5.938083 -48.697804 -0.925800 6.441626 8.019984 -27.269575 2.150143 7.079811 -5.878102 -5.835929 28.010677 4.161122 4.492706 51.487813 -0.363802 10.870550 -10.752926 16.387266 0.756847 3.841213 0.778557 -1.887513 
1.674261 0.768817 0.734174 -88.904340 -0.523662 111.699700 11.623948 -9.726296 -61.805232 -9.898422 10.883019 87.680297 3.992455 15.291942 -48.376779 0.000000 -0.000000 0.000000 -7.228793 8.949391 -61.809411 -0.469601 -9.312370 89.184484 6.248112 -16.146500 -48.186029 0.000000 -0.000000 0.000000 -3.136988 0.533746 35.809167 2.701869 -0.385667 -10.624880 0.846654 -2.093998 3.677411 0.035149 4.882451 -24.511753 3.164733 -2.296558 -12.001653 -30.179812 -5.947411 6.171634 -50.040222 -4.637722 7.031337 10.670102 -26.340495 -0.498954 7.381496 -4.968334 -7.749350 29.471808 7.504910 4.693686 50.707974 4.418475 11.538843 -11.837075 18.182752 0.479568 1.073398 2.512157 -3.051226 
1.646815 0.769060 0.735392 -89.272638 -0.892407 110.564462 9.589963 -10.876471 -57.562755 -9.756940 9.475290 88.001003 3.554719 15.594900 -48.728235 0.000000 -0.000000 0.000000 -6.079420 9.557437 -57.883615 -0.380133 -7.715022 89.965174 6.992791 -15.903937 -47.121387 0.000000 -0.000000 0.000000 -3.542201 0.632027 35.639736 2.734687 -1.040847 -10.071524 0.967297 -2.130822 3.500989 -0.030848 4.493235 -25.770033 2.934967 -2.370461 -10.875892 -29.809685 -9.106729 5.322807 -50.539158 -8.876538 8.586105 11.539945 -30.178258 -3.340730 11.843342 -5.137430 -8.399830 29.339263 10.789023 3.270961 50.196995 8.869501 12.835724 -13.804907 23.712139 -3.957313 -0.546790 3.171284 -5.188455 
1.611939 0.770427 0.748232 -89.329104 -0.717054 109.544042 7.344599 -11.094311 -50.841070 -9.989300 7.281400 85.357425 3.182282 15.866755 -48.819444 0.000000 -0.000000 0.000000 -4.128319 9.861485 -52.269026 -0.649079 -6.857482 88.300048 7.550253 -15.646513 -45.278030 0.000000 -0.000000 0.000000 -3.489273 0.356252 33.714884 2.767123 -1.356400 -9.815092 0.996898 -1.872720 3.785121 -0.094350 5.379839 -26.910436 2.457770 -2.154590 -9.992543 -27.537580 -11.304864 3.883335 -48.636749 -12.190431 9.834252 10.769952 -39.942135 -1.064334 9.762137 -6.090860 -9.651793 27.293214 12.597626 1.283735 49.997350 11.878274 13.978369 -18.536886 34.888721 -7.618129 -0.350009 3.513436 -6.901127 
1.566189 0.771366 0.773205 -90.179549 -0.633288 107.920825 4.684513 -10.316754 -41.520428 -10.069564 5.347183 79.882447 2.954993 16.046978 -45.903220 0.000000 -0.000000 0.000000 -1.679310 9.284966 -44.177472 -0.237077 -5.105835 83.768024 7.485166 -15.408339 -41.103245 0.000000 -0.000000 0.000000 -3.447558 0.756772 30.201341 2.428253 -1.618048 -9.284791 0.890393 -1.194452 3.491663 -0.788104 7.689096 -25.845668 2.365782 -0.374150 -8.346706 -23.162438 -14.204533 1.637928 -44.323448 -13.008759 10.778799 8.761314 -51.328328 1.563320 10.044029 -7.131486 -10.787865 23.033845 14.219451 -0.821706 49.584425 11.555201 14.906294 -28.243689 49.609291 -13.764178 2.241413 4.527113 -7.326079 
1.503860 0.774595 0.812130 -90.486571 -0.331541 105.307670 2.001179 -6.933356 -29.684871 -10.216459 1.492777 72.546334 2.685527 13.791158 -38.737204 0.000000 -0.000000 0.000000 1.523727 5.930755 -33.107923 -0.315006 -2.457189 76.485258 7.094894 -13.458873 -33.252973 0.000000 -0.000000 0.000000 -3.160100 1.634309 26.093698 2.683944 -2.061464 -7.645618 0.805442 -1.288922 3.221414 0.590067 8.253414 -23.640872 0.940107 -1.966253 -7.202422 -17.255222 -14.382204 -1.698615 -40.563562 -14.182825 9.899276 3.754800 -60.929758 7.673357 12.090939 -7.687763 -12.717901 17.748723 12.354076 -6.297613 48.802531 11.058764 15.993906 -39.145691 63.795954 -20.178985 2.770567 5.506634 -8.168614 
1.424378 0.778240 0.863443 -90.768238 -0.363737 102.141740 1.307635 -3.955180 -15.700860 -11.018198 -1.428469 60.945923 0.586789 10.574724 -25.216486 0.000000 -0.000000 0.000000 1.569297 2.411623 -19.988616 0.728372 -1.905045 65.016909 5.792347 -11.100777 -20.020658 0.000000 -0.000000 0.000000 -3.612518 2.261403 19.222875 2.654192 -3.038565 -4.699796 0.956589 -1.471515 2.807284 0.991852 7.905527 -18.183152 1.601135 0.038989 -5.688492 -11.205407 -14.557495 -1.845402 -39.237345 -12.856296 9.435472 4.366940 -66.045919 8.430521 14.569568 -9.454363 -14.019733 11.598455 11.717390 -7.740746 49.964575 9.858129 15.773769 -55.360900 70.712568 -35.433296 0.239343 6.673300 -11.871317 
1.330109 0.779423 0.928060 -90.783803 -1.077525 98.373043 1.230709 -2.450061 -1.012873 -9.541153 -3.223076 44.962565 -5.234459 6.305114 -0.976981 0.000000 -0.000000 0.000000 -1.174168 -1.118186 -5.529765 1.134301 -2.213793 49.239705 6.766398 -6.734027 3.271240 0.000000 -0.000000 0.000000 -4.920463 2.955519 11.038432 2.439254 -4.545173 -0.879558 1.341712 -1.173184 2.835896 0.610038 6.668311 -10.982470 3.827523 2.739822 -2.898518 -8.697751 -13.995526 -0.875946 -41.182385 -12.089213 9.298268 5.931799 -64.148363 7.169634 11.085164 -11.797035 -8.767644 9.002449 11.048654 -6.938389 52.657091 7.230622 15.416330 -67.498822 71.596236 -48.779725 1.310227 7.208602 -10.865241 
